<svg xmlns="http://www.w3.org/2000/svg" xmlns:xlink="http://www.w3.org/1999/xlink" width="48" height="48" viewBox="0 0 48 48">
  <defs>
    <linearGradient id="nomadsland-mark-on-white-b" x1="50%" x2="50%" y1="0%" y2="100%">
      <stop offset="0%" stop-color="#EFA021"/>
      <stop offset="100%" stop-color="#BE420F"/>
    </linearGradient>
    <circle id="nomadsland-mark-on-white-a" cx="23" cy="23" r="23"/>
  </defs>
  <g fill="none" fill-rule="evenodd" transform="translate(1 1)">
    <mask id="nomadsland-mark-on-white-c" fill="#fff">
      <use xlink:href="#nomadsland-mark-on-white-a"/>
    </mask>
    <use fill="url(#nomadsland-mark-on-white-b)" xlink:href="#nomadsland-mark-on-white-a"/>
    <g mask="url(#nomadsland-mark-on-white-c)">
      <g transform="translate(1.39 9.085)">
        <g fill="#F7B452" transform="translate(1.51 .069)">
          <path d="M.90474781 16.4447487C.87460492 16.3848406.87460492 16.3548866.844462031 16.2949786.784176251 16.2051166.844462031 16.1751626.90474781 16.1452086.965033589 16.1152546.995176479 16.1152546 1.05546226 16.0853006 1.17603382 16.0253926 1.17603382 15.9055766 1.08560515 15.8456686.965033589 15.7558065.814319141 15.7258525.663604693 15.7558065L.543033134 15.7558065C.181318459 15.7857606-.0296817685 15.5161745.0607469004 15.1866805.151175569 14.9170944.12103268 14.6175544.09088979 14.3479683.09088979 14.1981983.0607469004 14.0184743.0607469004 13.8687042.0306040108 13.5691642.0306040108 13.2696241.000461121141 12.9700841.000461121141 12.8502681.0306040108 12.7604061.151175569 12.7304521.301890017 12.670544.301890017 12.580682.241604238 12.460866.181318459 12.311096.12103268 12.161326.09088979 12.0115559.0306040108 11.8018779.181318459 11.6221539.422461576 11.5622459.844462031 11.4424299 1.29660537 11.4124758 1.74874872 11.4424299L1.89946317 11.4424299C2.08032051 11.4424299 2.20089206 11.5023379 2.35160651 11.6221539 2.3817494 11.6521079 2.41189229 11.6820619 2.44203518 11.6820619 2.53246385 11.7120159 2.56260674 11.6820619 2.56260674 11.5921999 2.56260674 11.3825218 2.56260674 11.3525678 2.77360697 11.3525678 3.58746499 11.2926598 4.4314659 11.2627058 5.24532392 11.2027978 5.63718148 11.1728438 5.99889616 11.1728438 6.39075372 11.1728438 6.69218262 11.1728438 6.99361151 11.1728438 7.29504041 11.2027978 7.50604064 11.2027978 7.59646931 11.3226138 7.53618353 11.5023379 7.47589775 11.7120159 7.41561197 11.9216939 7.3251833 12.131372 7.23475463 12.430912 7.14432596 12.7004981 7.05389729 13.0000381 7.0237544 13.1498081 6.99361151 13.2995782 6.96346862 13.4493482 6.93332573 13.6290722 6.81275418 13.7189342 6.63189684 13.7189342 5.96875327 13.7488882 5.30560969 13.8087962 4.64246612 13.7488882 4.25060856 13.7189342 3.94917966 13.5092562 3.70803654 13.2097161 3.5573221 13.0000381 3.37646476 12.7604061 3.22575031 12.550728 3.16546453 12.460866 3.04489297 12.400958 3.01475008 12.281142 3.01475008 12.251188 2.98460719 12.221234 2.9544643 12.221234L2.86403564 12.221234C2.83389275 12.251188 2.86403564 12.281142 2.86403564 12.311096 2.86403564 12.311096 2.86403564 12.311096 2.86403564 12.34105 3.10517875 12.580682 3.19560742 12.9401301 3.40660765 13.1797621 3.58746499 13.3894402 3.73817943 13.5691642 3.91903677 13.7788422 4.06975122 13.9585663 4.31089434 13.9885203 4.52189456 13.9885203 5.0041808 13.9885203 5.48646703 13.9885203 5.96875327 13.9585663 6.33046794 13.9585663 6.72232551 13.9286123 7.08404018 13.9585663 7.53618353 13.9885203 7.98832687 13.9286123 8.41032733 13.8687042 8.50075599 13.8687042 8.62132755 13.8986582 8.74189911 13.8986582 8.86247067 13.8986582 8.95289934 13.9286123 9.0734709 13.8986582 9.55575713 13.8387502 10.0079005 13.7788422 10.4901867 13.8087962 11.0026158 13.8087962 11.515045 13.8087962 12.0274741 13.8387502 12.1480456 13.8387502 12.2987601 13.8387502 12.4193316 13.8087962 12.4494745 13.8087962 12.4796174 13.8087962 12.5097603 13.7788422 12.5700461 13.7488882 12.6303319 13.7189342 12.6303319 13.6290722 12.6303319 13.5392102 12.5399032 13.5392102 12.4796174 13.5392102 12.2384743 13.5392102 11.9973312 13.5392102 11.7561881 13.5691642 11.515045 13.5691642 11.2739018 13.5991182 11.0327587 13.5991182 10.6107583 13.6290722 10.1887578 13.6290722 9.73661447 13.6590262L9.25432823 13.6590262C9.0734709 13.6590262 8.92275645 13.6590262 8.74189911 13.6889802 8.62132755 13.6889802 8.59118466 13.6590262 8.53089888 13.5392102 8.50075599 13.4793022 8.44047022 13.4193942 8.41032733 13.3295322 8.38018444 13.2696241 8.31989866 13.2097161 8.31989866 13.1498081 8.31989866 12.9101761 8.38018444 12.670544 8.4706131 12.460866 8.59118466 12.19128 8.71175622 11.8917399 8.80218489 11.6221539 8.92275645 11.2627058 9.16389957 11.0829818 9.55575713 11.1728438 9.58590002 11.1728438 9.61604291 11.2027978 9.6461858 11.1728438 10.0983291 11.1728438 10.5504725 11.1428898 11.0026158 11.1129358 11.4246163 11.0829818 11.8466167 11.0829818 12.2384743 11.0530278 12.2987601 11.0530278 12.3891888 11.0530278 12.4494745 11.0230738 12.5097603 11.0230738 12.5700461 10.9332118 12.5399032 10.8733038 12.5399032 10.8433498 12.4796174 10.8133957 12.4494745 10.7834417L12.3590459 10.7834417C11.786331 10.7834417 11.1834732 10.8133957 10.6107583 10.9032578 10.3394723 10.9332118 10.0681863 10.9631658 9.82704314 10.9032578 9.76675736 10.9032578 9.67632869 10.8733038 9.61604291 10.8433498 9.52561424 10.8133957 9.52561424 10.7235337 9.52561424 10.6336717 9.52561424 10.6037177 9.49547135 10.5138557 9.49547135 10.5138557 9.43518557 10.5138557 9.37489979 10.5138557 9.3447569 10.5438097 9.25432823 10.6037177 9.16389957 10.6935797 9.0734709 10.7534877 8.86247067 10.9032578 8.65147044 10.9631658 8.41032733 10.9032578 8.35004155 10.8733038 8.25961288 10.8433498 8.1993271 10.7834417 8.07875554 10.6935797 8.07875554 10.5438097 8.1993271 10.4239937 8.28975577 10.3640857 8.35004155 10.2742237 8.44047022 10.2143157 8.50075599 10.1544076 8.53089888 10.1544076 8.59118466 10.2143157 8.68161333 10.3341317 8.80218489 10.3041777 8.83232778 10.1544076 8.89261356 9.8848216 9.0734709 9.73505157 9.28447112 9.61523555 9.58590002 9.40555752 9.88732892 9.22583349 10.2189007 9.01615546 10.4600438 8.86638543 10.7011869 8.71661541 10.9423301 8.56684539 11.0930445 8.47698337 11.2437589 8.35716735 11.3944734 8.26730534 11.5451878 8.14748932 11.7260452 8.08758131 11.9370454 8.0576273 11.9973312 8.0576273 12.057617 8.0576273 12.0877599 8.14748932 12.1480456 8.26730534 12.2384743 8.32721335 12.3891888 8.32721335 12.4796174 8.32721335 12.4796174 8.29725934 12.4494745 8.23735133 12.3891888 8.11753531 12.2686172 8.0576273 12.1480456 8.0576273 12.0274741 8.0576273 12.0274741 8.0276733 12.057617 7.93781128 12.2686172 7.3986392 12.9619037 7.09909915 13.5346186 7.3986392 13.9264761 7.60831723 14.3484766 7.81799526 14.7403341 8.0276733 14.8910486 8.11753531 15.041763 8.17744332 15.1924775 8.26730534 15.313049 8.32721335 15.313049 8.41707536 15.1924775 8.50693738 15.1623346 8.50693738 15.1623346 8.53689138 15.1321917 8.53689138 14.6800484 8.6567074 14.227905 8.83643143 13.7456188 8.83643143 13.5346186 8.83643143 13.3236183 8.74656941 13.142761 8.62675339 12.9920465 8.53689138 12.871475 8.47698337 12.7207605 8.38712136 12.6604748 8.35716735 12.5700461 8.32721335 12.5097603 8.41707536 12.4796174 8.47698337 12.5399032 8.59679939 12.6303319 8.62675339 12.7509034 8.6866614 12.871475 8.71661541 12.9619037 8.77652342 13.0221894 8.80647742 13.0523323 8.80647742 13.1126181 8.83643143 13.2030468 8.89633944 13.1729039 8.98620145 13.1126181 9.01615546 13.0824752 9.01615546 13.0523323 9.04610946 13.0221894 9.04610946 12.600189 9.13597148 12.2083314 9.22583349 11.786331 9.34564951 11.4849021 9.40555752 11.2136161 9.46546553 10.9423301 9.55532754 10.8519014 9.58528155 10.7313298 9.64518956 10.671044 9.70509757 10.6409012 9.73505157 10.6409012 9.82491359 10.6409012 9.8848216 10.7011869 9.8848216 10.7614727 9.9147756 10.7916156 9.9147756 11.0629016 9.85486759 11.3040447 9.76500558 11.5753307 9.67514356 11.9671883 9.55532754 12.3590459 9.46546553 12.7810463 9.34564951 12.9317608 9.31569551 13.0824752 9.2857415 13.2331897 9.2557875 13.685333 9.19587949 14.0470477 9.34564951 14.4087624 9.58528155 14.6197626 9.73505157 14.8307628 9.94472961 15.1020488 10.0046376 15.1623346 10.0046376 15.2226204 10.0645456 15.2829062 10.0944996 15.4034777 10.1544076 15.4939064 10.1843616 15.6144779 10.1244536 15.7350495 10.0645456 15.7350495 9.94472961 15.6446208 9.8848216 15.5843351 9.85486759 15.5240493 9.82491359 15.4637635 9.79495958 15.3431919 9.73505157 15.2527633 9.70509757 15.1321917 9.61523555 15.1020488 9.58528155 15.0719059 9.52537354 15.041763 9.46546553 14.9814773 9.2857415 14.9211915 9.2557875 14.7403341 9.31569551 14.6197626 9.37560352 14.499191 9.34564951 14.3786195 9.2857415 14.3484766 9.2557875 14.3183337 9.2557875 14.2881908 9.22583349 14.1977621 9.13597148 14.227905 9.01615546 14.3484766 8.95624745 14.6800484 8.86638543 14.9814773 8.71661541 15.313049 8.6866614 15.7350495 8.6567074 16.1871928 8.6866614 16.5790504 8.86638543 16.8503364 9.01615546 17.1517653 9.16592548 17.4230513 9.31569551 17.6641944 9.43551153 17.9354804 9.55532754 18.1766236 9.70509757 18.327338 9.79495958 18.4780525 9.94472961 18.6287669 10.0645456 18.6890527 10.1244536 18.6890527 10.1843616 18.6589098 10.2442697 18.5684811 10.4239937 18.4177667 10.5737637 18.2067665 10.5737637 17.8149089 10.6037177 17.3929084 10.6336717 17.0010509 10.5438097 16.8804793 10.5138557 16.7599078 10.4839017 16.6393362 10.4239937 16.5187646 10.3640857 16.4584789 10.3940397 16.428336 10.5438097 16.3981931 10.6636257 16.3379073 10.7235337 16.15705 10.7534877L15.9460497 10.7534877C15.885764 10.7534877 15.8556211 10.7534877 15.8254782 10.7834417 15.7651924 10.8133957 15.7350495 10.8733038 15.7049066 10.9032578 15.7049066 10.9931198 15.7651924 10.9931198 15.8254782 10.9931198L16.1269071 10.9931198C16.2776215 10.9931198 16.428336 10.9631658 16.5489075 10.9931198 16.9106222 11.0230738 17.0613366 11.2327518 17.1517653 11.5322919 17.1819082 11.6521079 17.2120511 11.7419699 17.3326227 11.8018779 17.4833371 11.8617859 17.5737658 12.0115559 17.6340515 12.161326 17.6943373 12.311096 17.7546231 12.460866 17.8149089 12.64059 17.8751947 12.8502681 17.784766 13.0299921 17.5737658 13.0599461 17.4833371 13.0899001 17.3929084 13.0599461 17.3326227 13.0899001 17.2120511 13.0899001 17.0914795 13.1198541 16.970908 13.1198541 16.7900506 13.1498081 16.7297649 13.0899001 16.6694791 12.9401301 16.6393362 12.8802221 16.6393362 12.8203141 16.699622 12.7903601 16.8201935 12.64059 16.8201935 12.49082 16.7297649 12.34105 16.699622 12.281142 16.6393362 12.221234 16.5489075 12.251188 16.4584789 12.281142 16.428336 12.34105 16.428336 12.430912 16.428336 12.49082 16.4584789 12.520774 16.4584789 12.580682 16.4886217 12.670544 16.4584789 12.7004981 16.3680502 12.7004981L16.15705 12.7004981C16.0364784 12.7304521 15.9761926 12.8502681 15.9460497 12.9700841 15.9159068 13.1498081 15.885764 13.1797621 15.7049066 13.2097161 15.6446208 13.2097161 15.5843351 13.2396701 15.5240493 13.2396701 15.4336206 13.2696241 15.313049 13.1797621 15.3431919 13.0899001 15.3431919 12.9101761 15.4034777 12.7604061 15.4034777 12.580682 15.4336206 12.19128 15.4336206 11.8018779 15.3733348 11.4124758 15.3733348 11.3525678 15.3431919 11.2627058 15.3431919 11.2027978 15.313049 11.1129358 15.2829062 11.0530278 15.1924775 11.0530278 15.1020488 11.0530278 15.0719059 11.1428898 15.041763 11.2027978 15.041763 11.3525678 15.041763 11.4723839 15.0116202 11.6221539 15.0116202 12.0115559 14.9814773 12.430912 14.9814773 12.8203141 14.9814773 13.0299921 14.8609057 13.1797621 14.6800484 13.2995782 14.5896197 13.3594862 14.5293339 13.3894402 14.4389052 13.4793022 14.3484766 13.5691642 14.3484766 13.6590262 14.4389052 13.7488882 14.4690481 13.8087962 14.5293339 13.8387502 14.5896197 13.8687042 14.8910486 14.0184743 15.0116202 14.2581063 15.0116202 14.5876004L15.0116202 14.9170944C15.0116202 15.1267724 14.8609057 15.2765425 14.6499055 15.2166345 14.5896197 15.2166345 14.5594768 15.1866805 14.499191 15.1866805 14.2580479 15.1267724 14.0169048 15.3064965 14.0470477 15.5760825L14.0470477 15.6060365C14.1073335 15.8157146 14.0470477 15.9055766 13.8059046 15.8756226 13.6551901 15.8456686 13.5044757 15.8456686 13.3537612 15.8456686L13.2633326 15.8456686C13.0523323 15.7857606 12.9619037 15.6359905 13.0824752 15.4263125 13.1729039 15.3064965 13.2030468 15.1567265 13.1126181 15.0369104 13.1126181 15.0069564 13.1126181 15.0069564 13.0824752 14.9770024 13.0221894 14.8272324 13.0523323 14.7972784 13.2030468 14.7673244 13.3236183 14.7373704 13.4441899 14.7373704 13.5647615 14.7074164 13.5949043 14.7074164 13.6250472 14.7074164 13.6551901 14.6774624 13.685333 14.6475084 13.7154759 14.6175544 13.7154759 14.6175544 13.7154759 14.5876004 13.685333 14.5576464 13.6551901 14.5576464 13.414047 14.5276923 13.2633326 14.3779223 13.142761 14.1981983 13.0824752 14.1083363 13.0824752 14.0484283 13.1729039 13.9585663 13.2331897 13.8986582 13.2934754 13.8687042 13.3537612 13.8387502 13.4743328 13.7189342 13.4441899 13.5991182 13.2934754 13.5392102 13.0824752 13.4493482 13.0221894 13.3594862 13.0221894 13.1498081 13.0221894 12.520774 12.9920465 11.8617859 12.9920465 11.2327518 12.9920465 11.1728438 12.9619037 11.0829818 12.9016179 11.0829818 12.8413321 11.0829818 12.7810463 11.1428898 12.7509034 11.2027978 12.7207605 11.2327518 12.7207605 11.3226138 12.7207605 11.3525678 12.7207605 12.071464 12.7509034 12.7903601 12.7509034 13.4793022 12.7509034 13.8087962 12.7207605 14.1382903 12.6906177 14.4677843 12.6906177 14.5576464 12.6906177 14.6475084 12.7509034 14.7373704 12.8413321 14.8571864 12.8413321 14.9770024 12.8413321 15.1267724 12.8413321 15.1866805 12.8111892 15.2166345 12.7509034 15.1866805 12.6303319 15.1267724 12.5399032 15.1267724 12.4193316 15.1866805 12.328903 15.2166345 12.2384743 15.2166345 12.1480456 15.2465885 12.0877599 15.2465885 11.9973312 15.2765425 11.9973312 15.3664045 11.9973312 15.4562665 12.0274741 15.4862205 12.1179027 15.5161745 12.2686172 15.5461285 12.4494745 15.5461285 12.600189 15.5461285 12.6604748 15.5461285 12.7509034 15.5161745 12.7810463 15.6060365 12.8111892 15.6659445 12.7207605 15.7558065 12.6303319 15.7258525 12.4494745 15.7258525 12.2987601 15.7258525 12.1179027 15.6958985 11.6054736 15.6359905 11.1231874 15.6659445 10.6107583 15.7258525 9.97775759 15.7857606 9.31461401 15.8756226 8.68161333 15.9654846 8.41032733 15.9954386 8.16918421 16.0553466 7.8978982 16.0853006 7.86775531 16.0853006 7.80746953 16.0853006 7.80746953 16.0553466 7.77732664 16.0253926 7.80746953 15.9954386 7.80746953 15.9654846 7.80746953 15.9355306 7.83761242 15.9355306 7.83761242 15.9055766 7.92804109 15.8157146 7.8978982 15.6958985 7.80746953 15.6060365 7.71704086 15.5161745 7.6266122 15.5161745 7.50604064 15.6060365 7.41561197 15.6958985 7.3251833 15.7857606 7.20461174 15.8756226 6.87303995 16.1152546 6.54146817 16.1751626 6.1496106 16.0253926 6.02903905 15.9654846 5.90846749 15.9954386 5.75775304 15.9954386 5.66732437 15.9954386 5.60703859 16.0253926 5.51660992 16.0253926 5.30560969 16.0553466 5.12475236 16.0253926 4.94389502 15.9355306 4.88360924 15.9055766 4.82332346 15.9055766 4.76303768 15.9654846 4.58218034 16.2051166 4.31089434 16.2350706 4.03960833 16.2051166 3.73817943 16.1751626 3.43675054 16.2051166 3.13532164 16.2051166 3.07503586 16.2051166 2.98460719 16.2350706 2.92432141 16.2650246 2.71332119 16.3249326 2.47217807 16.3548866 2.29132073 16.2051166 2.17074917 16.1452086 2.11046339 16.0253926 2.08032051 15.9055766 2.05017762 15.7558065 1.95974895 15.7258525 1.83917739 15.8456686 1.65832005 16.0253926 1.5076056 16.1751626 1.29660537 16.3548866 1.2363196 16.4147947 1.17603382 16.4447487 1.17603382 16.5645647 1.20617671 16.4447487 1.05546226 16.4447487.90474781 16.4447487L.90474781 16.4447487zM5.15489525 12.0415099C5.15489525 12.071464 5.12475236 12.071464 5.15489525 12.0415099 4.82332346 12.071464 4.58218034 12.19128 4.40132301 12.430912 4.37118012 12.49082 4.34103723 12.580682 4.37118012 12.64059 4.4314659 12.8502681 4.79318057 12.9700841 5.0041808 12.8802221 5.18503814 12.7604061 5.33575258 12.610636 5.45632414 12.430912 5.51660992 12.34105 5.48646703 12.251188 5.42618125 12.19128 5.30560969 12.131372 5.21518103 12.101418 5.15489525 12.0415099L5.15489525 12.0415099zM3.79846521 15.9954386C4.09989411 15.9954386 4.31089434 15.8456686 4.49175167 15.6659445 4.58218034 15.5760825 4.58218034 15.5161745 4.49175167 15.4562665 4.4314659 15.3963585 4.37118012 15.3664045 4.31089434 15.3064965 4.03960833 15.0968184 3.88889388 15.0968184 3.5573221 15.2465885 3.46689343 15.2765425 3.46689343 15.3664045 3.49703632 15.4562665 3.61760788 15.6359905 3.67789365 15.6659445 3.88889388 15.6060365L3.91903677 15.6060365C3.94917966 15.6060365 3.97932255 15.6359905 4.00946544 15.6359905 4.00946544 15.6659445 3.97932255 15.6958985 3.97932255 15.7258525 3.91903677 15.7558065 3.8286081 15.7558065 3.73817943 15.7558065L3.52717921 15.7558065C3.49703632 15.7558065 3.43675054 15.8157146 3.43675054 15.8456686 3.43675054 15.8756226 3.49703632 15.9355306 3.52717921 15.9654846 3.61760788 15.9654846 3.70803654 15.9654846 3.79846521 15.9954386L3.79846521 15.9954386zM14.3183337 11.5023379C14.2881908 11.5322919 14.227905 11.5322919 14.1977621 11.5921999 14.1374764 11.6521079 14.1073335 11.7419699 14.0771906 11.8018779 14.0169048 11.9516479 14.0470477 12.071464 14.1676192 12.101418 14.3484766 12.131372 14.499191 12.221234 14.6499055 12.34105 14.6800484 12.371004 14.7403341 12.371004 14.8006199 12.371004 14.9513344 12.311096 14.9814773 12.131372 14.8609057 12.0115559 14.770477 11.8917399 14.6800484 11.7719239 14.5594768 11.6820619 14.499191 11.6221539 14.4690481 11.5322919 14.3183337 11.5023379L14.3183337 11.5023379zM2.56260674 14.1083363C2.47217807 14.1382903 2.41189229 14.1382903 2.3817494 14.1682443 2.29132073 14.2281523 2.26117784 14.3180143 2.32146362 14.4078763 2.41189229 14.5576464 2.47217807 14.6774624 2.44203518 14.8571864 2.44203518 14.9170944 2.47217807 15.0069564 2.53246385 15.0069564 2.62289252 15.0369104 2.65303541 14.9770024 2.6831783 14.9170944 2.77360697 14.7673244 2.83389275 14.6475084 2.89417852 14.4977383 2.9544643 14.3779223 2.92432141 14.2880603 2.83389275 14.2281523 2.77360697 14.1682443 2.65303541 14.1382903 2.56260674 14.1083363L2.56260674 14.1083363zM14.0470477 10.5737637L14.0470477 10.5737637C14.1977621 10.5737637 14.3183337 10.6037177 14.4389052 10.5737637 14.4690481 10.5737637 14.499191 10.5438097 14.5293339 10.5138557 14.499191 10.4839017 14.4690481 10.4539477 14.4389052 10.4539477L14.3484766 10.4539477C14.227905 10.4539477 14.1073335 10.4839017 13.956619 10.4839017 13.7757617 10.4839017 13.6250472 10.4839017 13.4441899 10.4539477 13.2934754 10.4239937 13.142761 10.3940397 13.0221894 10.2742237 12.9920465 10.2442697 12.871475 10.2442697 12.8413321 10.2742237 12.8111892 10.3041777 12.8111892 10.3940397 12.8413321 10.4539477 12.871475 10.5138557 12.9317608 10.5737637 12.9920465 10.5737637 13.142761 10.6037177 13.3236183 10.6037177 13.4743328 10.6037177 13.685333 10.6336717 13.8661903 10.6037177 14.0470477 10.5737637L14.0470477 10.5737637zM5.99889616 15.2765425C5.99889616 15.3963585 6.05918194 15.4562665 6.11946771 15.5461285 6.1496106 15.5760825 6.20989638 15.6060365 6.24003927 15.6060365 6.27018216 15.6060365 6.33046794 15.5461285 6.33046794 15.5161745L6.33046794 15.1866805C6.33046794 15.1267724 6.27018216 15.0668644 6.24003927 15.0668644 6.17975349 15.0668644 6.11946771 15.1267724 6.05918194 15.1567265 5.99889616 15.1866805 5.99889616 15.2465885 5.99889616 15.2765425L5.99889616 15.2765425zM4.19032278 14.6175544C4.22046567 14.6774624 4.22046567 14.7373704 4.25060856 14.7972784 4.28075145 14.8871404 4.4314659 14.8871404 4.46160879 14.8272324 4.49175167 14.7673244 4.52189456 14.6774624 4.55203745 14.5876004 4.55203745 14.4977383 4.49175167 14.4078763 4.40132301 14.3779223 4.31089434 14.3779223 4.22046567 14.4378303 4.19032278 14.5276923L4.19032278 14.6175544 4.19032278 14.6175544zM10.9121872 14.4078763C10.8519014 14.4078763 10.7916156 14.4677843 10.7614727 14.5576464 10.7313298 14.6774624 10.7916156 14.8272324 10.8519014 14.8272324L10.8519014 14.8272324C10.9423301 14.8571864 11.0629016 14.7373704 11.0930445 14.6175544 11.1231874 14.5576464 11.0327587 14.4078763 10.9121872 14.4078763L10.9121872 14.4078763zM5.42618125 15.7258525C5.45632414 15.7258525 5.51660992 15.7258525 5.5768957 15.6958985 5.60703859 15.6958985 5.63718148 15.6359905 5.63718148 15.6060365 5.63718148 15.5760825 5.60703859 15.5161745 5.5768957 15.5161745 5.45632414 15.4562665 5.33575258 15.4562665 5.21518103 15.5161745 5.18503814 15.5461285 5.15489525 15.5760825 5.15489525 15.6060365 5.15489525 15.6359905 5.21518103 15.6659445 5.24532392 15.6958985 5.30560969 15.7258525 5.36589547 15.7258525 5.42618125 15.7258525L5.42618125 15.7258525zM10.1887578 9.8848216C10.0983291 9.8848216 10.0380434 9.94472961 10.0079005 10.0046376 9.97775759 10.0645456 10.0079005 10.1244536 10.0681863 10.1244536 10.128472 10.1244536 10.1887578 10.0944996 10.2189007 10.0944996 10.2791865 10.0645456 10.3394723 10.0345916 10.3093294 9.94472961 10.3093294 9.9147756 10.2490436 9.8848216 10.1887578 9.8848216L10.1887578 9.8848216zM16.3077644 10.2143157C16.2776215 10.2742237 16.2474786 10.3041777 16.2474786 10.3041777 16.2776215 10.3341317 16.3077644 10.3640857 16.3379073 10.3940397L16.3981931 10.3341317C16.3680502 10.3041777 16.3379073 10.2742237 16.3077644 10.2143157L16.3077644 10.2143157zM30.6859228 4.16360667C30.625637 4.13365267 30.5653512 4.10369866 30.5050654 4.07374466 30.354351 3.98388264 30.2940652 3.80415862 30.3242081 3.65438859 30.354351 3.56452658 30.354351 3.50461857 30.3844939 3.41475655 30.4146367 3.29494053 30.3844939 3.20507852 30.3242081 3.1152165 30.2337794 2.99540048 30.1132079 2.96544648 29.9926363 2.90553847 29.811779 2.84563046 29.811779 2.84563046 29.7213503 2.99540048 29.6912074 3.02535449 29.6610645 3.05530849 29.6007787 3.05530849 29.5706358 3.05530849 29.5103501 3.02535449 29.5103501 2.99540048 29.5103501 2.96544648 29.540493 2.87558446 29.540493 2.87558446 29.6912074 2.84563046 29.7213503 2.75576845 29.7816361 2.63595243 29.7816361 2.63595243 29.7816361 2.63595243 29.7816361 2.60599842 29.9624934 2.42627439 29.9926363 2.21659636 30.0227792 1.97696432 30.0227792 1.94701031 30.0227792 1.8571483 29.9926363 1.8571483 29.9624934 1.8271943 29.9022076 1.8571483 29.8720647 1.88710231 29.7816361 1.94701031 29.6912074 1.91705631 29.6912074 1.79724029L29.6912074 1.64747027C29.6912074 1.52765425 29.6007787 1.46774624 29.4802072 1.52765425 29.4199214 1.55760825 29.3596356 1.58756226 29.2993498 1.58756226 29.0582067 1.70737828 28.7869207 1.49770024 28.7869207 1.2281142L28.7869207.898620145C28.7869207.778804126 28.7869207.658988107 28.8472065.539172087 28.8773494.419356068 28.8773494.389402063 28.7567778.359448058 28.6362063.329494053 28.5457776.299540048 28.425206.299540048 28.1840629.269586044 27.9429198.239632039 27.6716338.209678034 27.5812051.209678034 27.4907765.179724029 27.4606336.0599080097L26.9482044.0599080097C26.8577758.329494053 26.6467755.539172087 26.4357753.718896116 26.4056324.748850121 26.3453467.778804126 26.2850609.748850121 26.254918.748850121 26.2247751.658988107 26.2247751.629034102 26.2247751.539172087 26.254918.449310073 26.2850609.389402063 26.3754895.269586044 26.3754895.149770024 26.3152038.0299540048L26.1644893.0299540048C26.1343464.119816019 26.1042035.239632039 26.0439178.329494053 25.983632.449310073 25.8630604.479264077 25.7424889.389402063 25.712346.359448058 25.712346.359448058 25.6822031.329494053 25.6219173.269586044 25.5314886.269586044 25.44106.299540048 25.4109171.329494053 25.3807742.329494053 25.3204884.359448058 25.1396311.449310073 24.9286308.539172087 24.8382022.778804126 24.8080593.86866614 24.7779164.958528155 24.7779164 1.04839017 24.7477735 1.13825218 24.7477735 1.2580682 24.6272019 1.2580682 24.5066304 1.28802221 24.4162017 1.28802221 24.2956302 1.28802221 24.2654873 1.28802221 24.2353444 1.2580682 24.2052015 1.2281142 24.1449157 1.16820619 24.1147728 1.07834417 24.054487 1.01843616 23.9640584.92857415 23.8736297.808758131 23.8434868.688942111 23.8133439.629034102 23.7530581.569126092 23.6927724.599080097 23.6023437.629034102 23.6023437.688942111 23.6324866.748850121 23.6927724.898620145 23.6927724 1.04839017 23.8133439 1.16820619 23.9037726 1.2580682 23.8434868 1.40783823 23.7229153 1.40783823 23.6626295 1.40783823 23.6023437 1.34793022 23.5420579 1.31797621 23.4817721 1.28802221 23.4214864 1.2281142 23.3612006 1.2281142 23.2707719 1.19816019 23.1502004 1.28802221 23.1200575 1.37788422 23.1803432 1.49770024 23.2707719 1.49770024 23.3310577 1.55760825 23.4214864 1.61751626 23.5420579 1.67742427 23.6324866 1.76728629 23.6927724 1.8271943 23.7530581 1.88710231 23.7229153 1.97696432 23.6927724 2.06682633 23.6324866 2.09678034 23.5420579 2.12673434 23.3612006 2.15668835 23.3310577 2.24655036 23.3913435 2.39632039 23.4214864 2.54609041 23.4817721 2.66590643 23.511915 2.81567646 23.5420579 3.02535449 23.511915 3.20507852 23.3310577 3.35484854 23.2104861 3.47466456 23.0899146 3.53457257 22.9090572 3.53457257 22.8789143 3.53457257 22.8186286 3.56452658 22.8186286 3.59448058 22.8186286 3.62443459 22.8487715 3.6843426 22.8487715 3.7142966 22.9090572 3.77420461 22.969343 3.80415862 22.9994859 3.86406662 23.2707719 4.13365267 23.2707719 4.43319272 22.969343 4.70277876 22.8487715 4.79264077 22.8789143 4.88250279 22.9994859 4.9424108 23.0899146 5.00231881 23.1502004 5.09218082 23.1200575 5.18204284 23.0899146 5.33181286 23.1502004 5.42167488 23.2707719 5.51153689 23.3913435 5.60139891 23.4817721 5.72121493 23.511915 5.84103094 23.6324866 6.200479 23.8434868 6.50001905 24.0846299 6.76960509 24.2353444 6.94932912 24.4463446 7.06914514 24.6573448 7.21891517 24.8080593 7.30877718 24.9286308 7.4285932 24.8984879 7.60831723 24.8984879 7.66822524 24.8984879 7.72813325 24.9889166 7.75808725 25.0793453 7.75808725 25.1094882 7.72813325 25.1396311 7.66822524 25.169774 7.57836323 25.2300597 7.48850121 25.2602026 7.36868519 25.3506313 7.21891517 25.4712029 7.18896116 25.6219173 7.27882318 25.712346 7.36868519 25.8027746 7.45854721 25.8932033 7.51845522 25.9534891 7.54840922 25.983632 7.60831723 26.0439178 7.63827124 26.1343464 7.69817924 26.2247751 7.69817924 26.3453467 7.57836323 26.4659182 7.45854721 26.5864898 7.4285932 26.7372042 7.45854721 26.8276329 7.48850121 26.9482044 7.48850121 27.0386331 7.45854721 27.2797762 7.3986392 27.5209193 7.33873119 27.7620625 7.27882318 27.9127769 7.24886917 27.9429198 7.24886917 28.0032056 7.36868519 28.0333485 7.45854721 28.1237771 7.48850121 28.1840629 7.45854721 28.2744916 7.4285932 28.3046345 7.36868519 28.2744916 7.27882318 28.2443487 7.15900716 28.3046345 7.06914514 28.3950631 6.97928313 28.4553489 6.91937512 28.5156347 6.8295131 28.5759205 6.73965109 28.7266349 6.52997306 28.8773494 6.41015704 29.1486354 6.38020303 29.2089212 6.38020303 29.2993498 6.32029502 29.3596356 6.26038701 29.4802072 6.14057099 29.4802072 5.99080097 29.4802072 5.84103094 29.4802072 5.78112293 29.5103501 5.72121493 29.540493 5.72121493 29.5706358 5.72121493 29.6610645 5.75116893 29.6912074 5.78112293 29.7816361 5.84103094 29.7816361 5.96084696 29.7816361 6.05070898 29.7816361 6.08066298 29.811779 6.14057099 29.8419218 6.170525 29.8720647 6.14057099 29.9323505 6.14057099 29.9624934 6.11061699 30.1734936 5.81107694 30.3242081 5.51153689 30.2940652 5.12213483 30.2639223 4.79264077 30.3844939 4.55300874 30.6859228 4.40323871 30.8064943 4.3133767 30.8064943 4.22351468 30.6859228 4.16360667L30.6859228 4.16360667zM27.5209193.449310073C27.611348.449310073 27.6716338.539172087 27.6716338.658988107 27.6716338.778804126 27.6414909.808758131 27.5209193.808758131 27.4304907.808758131 27.3702049.748850121 27.3702049.599080097 27.3702049.479264077 27.4003478.449310073 27.5209193.449310073L27.5209193.449310073zM25.3204884.808758131C25.3807742.718896116 25.6520602.778804126 25.6822031.86866614 25.712346.98848216 25.6219173 1.07834417 25.44106 1.07834417 25.3807742 1.07834417 25.2903455 1.01843616 25.2602026.958528155 25.2903455.92857415 25.2903455.86866614 25.3204884.808758131L25.3204884.808758131zM29.1787783 4.40323871C29.0582067 4.46314672 28.967778 4.55300874 28.8773494 4.64287075 28.6060634 4.91245679 28.6362063 5.21199684 28.7266349 5.5414909 28.7567778 5.66130692 28.7869207 5.78112293 28.7869207 5.90093895 28.7869207 6.05070898 28.6663492 6.200479 28.4854918 6.23043301L28.3649203 6.23043301C28.1840629 6.23043301 28.0936342 6.29034102 28.0333485 6.44011104 27.9127769 6.70969708 27.7017767 6.85946711 27.4003478 6.88942111L26.79749 6.88942111C26.79749 6.88942111 26.79749 6.88942111 26.79749 6.91937512L26.1042035 6.91937512C25.8630604 6.91937512 25.6822031 6.7995591 25.5013457 6.64978908 25.3807742 6.52997306 25.2602026 6.52997306 25.1094882 6.58988107 24.9889166 6.64978908 24.8683451 6.67974308 24.7779164 6.73965109 24.6874877 6.76960509 24.5970591 6.76960509 24.5066304 6.70969708 24.4162017 6.64978908 24.4162017 6.58988107 24.4764875 6.50001905 24.6272019 6.32029502 24.6272019 6.14057099 24.4463446 5.96084696 24.3559159 5.87098495 24.2654873 5.81107694 24.1750586 5.75116893 23.9037726 5.60139891 23.7530581 5.39172087 23.6927724 5.12213483 23.6626295 5.03227281 23.6626295 4.91245679 23.6324866 4.79264077 23.6023437 4.61291675 23.5722008 4.46314672 23.5722008 4.28342269L23.5722008 3.74425061C23.6324866 3.35484854 23.8434868 2.99540048 24.0243441 2.66590643 24.1449157 2.4861824 24.2353444 2.30645837 24.3860588 2.12673434 24.6874877 1.79724029 25.0793453 1.64747027 25.5013457 1.55760825 25.7726317 1.49770024 26.0439178 1.43779223 26.2850609 1.40783823 26.6467755 1.31797621 27.0084902 1.31797621 27.3702049 1.40783823 27.8524911 1.52765425 28.2443487 1.8271943 28.5457776 2.18664235 28.7266349 2.39632039 28.8773494 2.60599842 29.0280638 2.81567646 29.1486354 2.99540048 29.2089212 3.20507852 29.2089212 3.41475655L29.2089212 3.80415862C29.2089212 3.89402063 29.2390641 4.01383665 29.2390641 4.10369866 29.3596356 4.25346869 29.3294927 4.3133767 29.1787783 4.40323871L29.1787783 4.40323871z"/>
          <path d="M4.7027519 6.55992706C4.67260901 6.76960509 4.67260901 7.00923713 4.64246612 7.21891517L4.64246612 7.48850121C4.64246612 7.69817924 4.82332346 7.81799526 5.03432369 7.69817924 5.15489525 7.63827124 5.24532392 7.54840922 5.36589547 7.48850121 5.5768957 7.36868519 5.78789593 7.24886917 5.99889616 7.12905315 6.02903905 7.09909915 6.11946771 7.09909915 6.1496106 7.12905315 6.17975349 7.12905315 6.24003927 7.18896116 6.24003927 7.21891517 6.24003927 7.24886917 6.20989638 7.30877718 6.17975349 7.33873119 6.1496106 7.36868519 6.08932482 7.3986392 6.05918194 7.4285932 5.96875327 7.51845522 5.96875327 7.63827124 6.05918194 7.72813325 6.11946771 7.75808725 6.1496106 7.78804126 6.20989638 7.84794927 6.27018216 7.90785728 6.24003927 7.96776529 6.17975349 7.96776529 5.90846749 8.0276733 5.81803882 8.23735133 5.69746726 8.44702937 5.66732437 8.53689138 5.69746726 8.62675339 5.78789593 8.6866614 5.8783246 8.74656941 5.93861038 8.71661541 5.99889616 8.6567074 6.20989638 8.50693738 6.39075372 8.32721335 6.63189684 8.17744332 6.90318284 7.99771929 7.17446885 7.84794927 7.44575486 7.69817924 7.65675508 7.57836323 7.86775531 7.48850121 8.07875554 7.3986392 8.10889843 7.3986392 8.13904132 7.33873119 8.13904132 7.30877718 8.13904132 7.27882318 8.07875554 7.24886917 8.04861265 7.24886917 7.95818398 7.24886917 7.8978982 7.27882318 7.80746953 7.27882318 7.65675508 7.33873119 7.50604064 7.3986392 7.35532619 7.45854721L7.3251833 7.45854721C7.26489752 7.45854721 7.17446885 7.48850121 7.14432596 7.4285932 7.14432596 7.3986392 7.20461174 7.33873119 7.23475463 7.30877718 7.3251833 7.24886917 7.35532619 7.15900716 7.3251833 7.06914514 7.29504041 7.00923713 7.26489752 6.91937512 7.26489752 6.85946711 7.23475463 6.58988107 7.35532619 6.38020303 7.56632642 6.26038701 8.10889843 5.90093895 8.71175622 5.66130692 9.37489979 5.60139891 9.85718603 5.5414909 10.3394723 5.66130692 10.7916156 5.90093895 10.8519014 5.93089296 10.8820443 5.96084696 10.9121872 6.02075497 11.0026158 6.200479 11.1533303 6.26038701 11.3341876 6.23043301 11.5451878 6.200479 11.6959023 6.26038701 11.8466167 6.41015704 11.9370454 6.50001905 12.0274741 6.58988107 12.0877599 6.67974308 12.1781885 6.8295131 12.2987601 6.91937512 12.4796174 6.91937512 12.5399032 6.91937512 12.600189 6.94932912 12.6303319 7.00923713 12.6604748 7.03919114 12.6604748 7.12905315 12.6303319 7.15900716 12.4494745 7.33873119 12.2384743 7.48850121 11.9671883 7.54840922 11.9069025 7.57836323 11.8466167 7.57836323 11.786331 7.57836323 11.6054736 7.63827124 11.3944734 7.57836323 11.2437589 7.48850121 10.9121872 7.36868519 10.5504725 7.21891517 10.2189007 7.09909915 10.0681863 7.03919114 9.88732892 7.00923713 9.70647158 7.00923713 9.43518557 7.00923713 9.13375668 7.00923713 8.86247067 7.03919114 8.71175622 7.06914514 8.59118466 7.12905315 8.44047022 7.18896116 8.41032733 7.18896116 8.41032733 7.21891517 8.41032733 7.24886917 8.41032733 7.27882318 8.44047022 7.27882318 8.4706131 7.27882318L8.71175622 7.27882318C9.28447112 7.18896116 9.82704314 7.24886917 10.399758 7.3986392 10.6107583 7.45854721 10.7916156 7.51845522 11.0026158 7.57836323 11.0930445 7.60831723 11.1834732 7.63827124 11.2437589 7.69817924 11.3944734 7.78804126 11.4246163 7.96776529 11.2739018 8.11753531 11.1533303 8.20739733 11.0327587 8.29725934 10.9121872 8.38712136 10.671044 8.53689138 10.4299009 8.6866614 10.1887578 8.83643143 9.97775759 8.95624745 9.79690025 9.10601747 9.58590002 9.22583349 9.52561424 9.2557875 9.43518557 9.2557875 9.37489979 9.2857415 9.22418535 9.31569551 9.10361379 9.34564951 9.01318512 9.46546553 8.89261356 9.64518956 8.74189911 9.79495958 8.59118466 9.94472961 8.53089888 10.0046376 8.4706131 10.0345916 8.41032733 10.0645456 8.25961288 10.1544076 8.16918421 10.2742237 8.10889843 10.4239937 7.98832687 10.6037177 7.83761242 10.7834417 7.6266122 10.8433498 7.41561197 10.9032578 7.20461174 10.9332118 6.99361151 10.9332118 6.69218262 10.9032578 6.42089661 10.9032578 6.1496106 10.9332118 5.75775304 10.9631658 5.36589547 10.9631658 4.97403791 10.9931198 4.55203745 11.0230738 4.16017989 11.0230738 3.73817943 11.0530278 3.67789365 11.0530278 3.58746499 11.0829818 3.52717921 11.1129358 3.34632187 11.1728438 3.22575031 11.1129358 3.16546453 10.9631658 3.10517875 10.8433498 3.01475008 10.8133957 2.89417852 10.9032578 2.80374986 10.9631658 2.71332119 11.0530278 2.62289252 11.1129358 2.47217807 11.2327518 2.29132073 11.2627058 2.11046339 11.2926598 1.71860583 11.2926598 1.35689115 11.2926598.965033589 11.3226138.90474781 11.3226138.844462031 11.3525678.784176251 11.3525678L.663604693 11.3525678C.633461803 11.3525678.603318914 11.3226138.603318914 11.2926598.603318914 11.2627058.633461803 11.2327518.633461803 11.2027978.90474781 11.0230738 1.14589093 10.8133957 1.41717693 10.6336717 1.5076056 10.5737637 1.62817716 10.5138557 1.74874872 10.4839017 2.02003473 10.4239937 2.23103495 10.3041777 2.47217807 10.1544076 2.59274963 10.0645456 2.71332119 10.0046376 2.83389275 9.94472961 2.9544643 9.85486759 2.9544643 9.79495958 2.86403564 9.67514356 2.77360697 9.58528155 2.74346408 9.52537354 2.86403564 9.43551153 3.07503586 9.2557875 3.28603609 9.07606347 3.49703632 8.92629344 3.5573221 8.86638543 3.64775077 8.86638543 3.70803654 8.95624745 3.73817943 8.98620145 3.76832232 9.04610946 3.79846521 9.07606347 3.85875099 9.13597148 3.88889388 9.19587949 3.94917966 9.22583349 3.97932255 9.2557875 4.03960833 9.2557875 4.06975122 9.22583349 4.09989411 9.22583349 4.09989411 9.16592548 4.09989411 9.13597148 4.00946544 8.86638543 4.06975122 8.62675339 4.16017989 8.38712136 4.22046567 8.17744332 4.31089434 7.93781128 4.37118012 7.72813325 4.40132301 7.66822524 4.37118012 7.57836323 4.37118012 7.48850121 4.37118012 7.18896116 4.34103723 6.91937512 4.34103723 6.61983507 4.34103723 6.55992706 4.37118012 6.50001905 4.40132301 6.44011104 4.46160879 6.29034102 4.55203745 6.26038701 4.7027519 6.29034102 4.82332346 6.32029502 4.88360924 6.38020303 4.88360924 6.52997306 4.7027519 6.47006505 4.7027519 6.52997306 4.7027519 6.55992706L4.7027519 6.55992706 4.7027519 6.55992706zM4.97403791 8.86638543C4.91375213 8.89633944 4.82332346 8.89633944 4.82332346 8.92629344 4.76303768 9.04610946 4.64246612 9.07606347 4.52189456 9.13597148 4.52189456 9.13597148 4.49175167 9.13597148 4.49175167 9.16592548 4.40132301 9.2557875 4.31089434 9.37560352 4.22046567 9.46546553 4.19032278 9.52537354 4.19032278 9.55532754 4.22046567 9.61523555 4.25060856 9.67514356 4.28075145 9.73505157 4.34103723 9.76500558 4.37118012 9.79495958 4.4314659 9.8848216 4.49175167 9.85486759 4.55203745 9.85486759 4.61232323 9.79495958 4.64246612 9.73505157 4.67260901 9.70509757 4.67260901 9.61523555 4.67260901 9.55532754 4.7027519 9.40555752 4.7027519 9.2857415 4.73289479 9.13597148 4.73289479 9.10601747 4.79318057 9.07606347 4.82332346 9.07606347 4.97403791 9.01615546 4.97403791 9.01615546 4.97403791 8.86638543 5.12475236 8.86638543 5.2754668 8.83643143 5.39603836 8.74656941 5.42618125 8.71661541 5.45632414 8.6567074 5.45632414 8.59679939 5.45632414 8.56684539 5.39603836 8.53689138 5.36589547 8.50693738 5.30560969 8.47698337 5.24532392 8.47698337 5.18503814 8.44702937 5.09460947 8.41707536 4.97403791 8.41707536 4.88360924 8.47698337 4.76303768 8.53689138 4.76303768 8.62675339 4.85346635 8.71661541 4.91375213 8.77652342 4.94389502 8.83643143 4.97403791 8.86638543L4.97403791 8.86638543zM8.86247067 6.41015704C8.92275645 6.38020303 8.98304223 6.35024903 9.04332801 6.32029502 9.13375668 6.26038701 9.16389957 6.170525 9.10361379 6.08066298 9.0734709 5.99080097 8.95289934 5.93089296 8.86247067 5.96084696 8.71175622 5.99080097 8.56104177 6.02075497 8.44047022 6.05070898 8.41032733 6.05070898 8.38018444 6.11061699 8.38018444 6.14057099 8.38018444 6.170525 8.41032733 6.23043301 8.44047022 6.26038701 8.56104177 6.32029502 8.71175622 6.35024903 8.86247067 6.41015704L8.86247067 6.41015704zM4.130037 9.64518956C4.09989411 9.64518956 4.06975122 9.61523555 4.03960833 9.58528155 3.97932255 9.58528155 3.88889388 9.67514356 3.88889388 9.73505157 3.88889388 9.76500558 3.94917966 9.79495958 3.94917966 9.79495958 4.06975122 9.85486759 4.130037 9.76500558 4.130037 9.64518956L4.130037 9.64518956zM19.3220534 13.6889802C19.3220534 13.7488882 19.3220534 13.8087962 19.3521963 13.8687042 19.3823391 14.0484283 19.3220534 14.1382903 19.1713389 14.1682443 18.8096242 14.2581063 18.6287669 14.4977383 18.4177667 14.7673244 18.3574809 14.8571864 18.327338 15.0069564 18.327338 15.1267724 18.2971951 15.3064965 18.1464807 15.5461285 17.9656233 15.6060365L17.8149089 15.6060365C17.6340515 15.5760825 17.4531942 15.5461285 17.3024798 15.5161745 17.2120511 15.5161745 17.1819082 15.4562665 17.1517653 15.3963585 17.0914795 15.1567265 17.0311938 14.9170944 16.970908 14.6475084 16.9106222 14.3479683 16.8503364 14.0783823 16.7599078 13.7788422 16.7599078 13.7189342 16.699622 13.6889802 16.6694791 13.6290722 16.6393362 13.5392102 16.6694791 13.4793022 16.7599078 13.4493482 16.9106222 13.4193942 17.0613366 13.4193942 17.2120511 13.3894402 17.4531942 13.3594862 17.6039087 13.4793022 17.6641944 13.7189342 17.6641944 13.7788422 17.7244802 13.8387502 17.7546231 13.8387502 17.8149089 13.8387502 17.8751947 13.8087962 17.9053376 13.7788422 18.056052 13.5991182 18.2369093 13.4793022 18.4479096 13.3894402 18.6890527 13.2995782 18.9301958 13.2696241 19.1713389 13.3594862 19.3220534 13.4493482 19.3220534 13.4793022 19.3220534 13.6889802L19.3220534 13.6889802zM18.1464807 10.8733038C18.2971951 10.9032578 18.4177667 10.9332118 18.5684811 10.9332118L18.7493385 10.9332118C18.8096242 10.9332118 18.86991 10.9032578 18.9301958 10.9032578 19.0809103 10.8733038 19.2014818 10.9631658 19.2014818 11.1428898 19.2014818 11.2327518 19.1713389 11.3525678 19.1713389 11.4424299 19.1713389 11.6820619 19.2014818 11.9516479 19.2014818 12.19128L19.2014818 12.8203141C19.2014818 12.9700841 19.1110531 13.0599461 18.9301958 13.0599461 18.8397671 13.0599461 18.7794814 13.0599461 18.6890527 13.0899001 18.5081953 13.0899001 18.3876238 13.0000381 18.327338 12.8802221 18.2067665 12.670544 18.0861949 12.460866 17.9957662 12.251188 17.8450518 11.9516479 17.6943373 11.6221539 17.5436229 11.3226138L17.5436229 11.2926598C17.4230513 11.1129358 17.5436229 10.9631658 17.7244802 10.9332118 17.8149089 10.9032578 17.8751947 10.9032578 17.9656233 10.9032578 17.9957662 10.9032578 18.056052 10.9032578 18.1464807 10.8733038L18.1464807 10.8733038 18.1464807 10.8733038zM18.0259091 11.5322919C18.0259091 11.6820619 18.0861949 11.8018779 18.1766236 11.8917399 18.2369093 11.9516479 18.2971951 11.9816019 18.3876238 11.9216939 18.4479096 11.8617859 18.4780525 11.7719239 18.4177667 11.7120159 18.3574809 11.6221539 18.2971951 11.5622459 18.2369093 11.4723839 18.2067665 11.4424299 18.1464807 11.4124758 18.1163378 11.4424299 18.056052 11.4424299 18.0259091 11.5023379 18.0259091 11.5322919L18.0259091 11.5322919zM16.0063355 13.4793022C16.0967642 13.4793022 16.15705 13.5392102 16.0967642 13.6290722 16.0666213 13.6889802 16.0364784 13.7488882 16.0063355 13.8087962 15.885764 14.1083363 15.885764 14.4078763 15.9761926 14.7074164 16.0364784 14.9470484 16.1269071 15.1567265 16.2173357 15.3963585 16.2474786 15.5161745 16.2173357 15.5461285 16.1269071 15.6060365 16.0666213 15.6359905 15.9761926 15.6659445 15.9159068 15.7258525 15.8254782 15.8756226 15.6446208 15.8756226 15.5541922 15.6958985 15.4336206 15.4862205 15.4034777 15.2465885 15.3733348 15.0369104 15.3733348 14.6774624 15.3431919 14.3479683 15.3733348 13.9885203 15.3733348 13.7488882 15.5541922 13.5991182 15.7953353 13.5691642 15.885764 13.5092562 15.9460497 13.4793022 16.0063355 13.4793022L16.0063355 13.4793022zM8.4706131 11.9816019C8.44047022 12.0415099 8.44047022 12.131372 8.41032733 12.19128 8.28975577 12.460866 8.10889843 12.7304521 7.8978982 12.9401301 7.83761242 13.0000381 7.80746953 13.0299921 7.74718375 13.0599461 7.65675508 13.1498081 7.65675508 13.2097161 7.71704086 13.2995782 7.77732664 13.3594862 7.80746953 13.3894402 7.83761242 13.4493482 7.8978982 13.5092562 7.86775531 13.5991182 7.80746953 13.6290722 7.77732664 13.6590262 7.71704086 13.6590262 7.68689797 13.6889802 7.56632642 13.7189342 7.47589775 13.7189342 7.35532619 13.7488882 7.26489752 13.7788422 7.17446885 13.7189342 7.20461174 13.6290722 7.29504041 13.2995782 7.35532619 13.0000381 7.44575486 12.670544 7.47589775 12.550728 7.53618353 12.460866 7.56632642 12.34105 7.65675508 12.101418 7.86775531 12.0115559 8.07875554 11.9216939 8.13904132 11.8917399 8.22946999 11.8617859 8.28975577 11.8318319 8.41032733 11.8018779 8.4706131 11.8318319 8.4706131 11.9816019L8.4706131 11.9816019zM22.6988989 2.00691832C22.7594252 2.03749327 22.8502147 2.06806821 22.910741 2.09864315 22.9410041 2.12921809 22.9410041 2.19036798 22.9410041 2.22094292 22.8804778 2.2820928 22.8199515 2.37381763 22.729162 2.43496751 22.6988989 2.46554245 22.6686357 2.46554245 22.6383726 2.43496751 22.5778463 2.43496751 22.4870568 2.22094292 22.4870568 2.12921809 22.4870568 2.09864315 22.5778463 2.03749327 22.6988989 2.00691832L22.6988989 2.00691832zM22.3363423 4.76268677C22.3363423 4.61291675 22.397569 4.46314672 22.397569 4.3133767 22.397569 4.28342269 22.4587956 4.25346869 22.5200222 4.25346869 22.5812489 4.25346869 22.6424755 4.28342269 22.7037022 4.28342269L22.7037022 4.3133767C22.7649288 4.49310073 22.8261554 4.67282476 22.7649288 4.85254878 22.7037022 4.91245679 22.6424755 4.9723648 22.5200222 4.9424108 22.4587956 4.9424108 22.397569 4.88250279 22.3363423 4.82259478 22.3363423 4.79264077 22.3363423 4.76268677 22.3363423 4.76268677L22.3363423 4.76268677 22.3363423 4.76268677zM29.5008505 1.10829818C29.5008505 1.28802221 29.35412 1.37788422 29.170707 1.34793022 29.0606591 1.31797621 29.0239765 1.2580682 29.0606591 1.16820619 29.1340243 1.07834417 29.2073896.98848216 29.2807548.898620145 29.35412.838712136 29.4274853.86866614 29.4641679.92857415 29.4641679.958528155 29.4641679.98848216 29.5008505 1.01843616 29.5008505 1.04839017 29.5008505 1.07834417 29.5008505 1.10829818L29.5008505 1.10829818zM31.4111561 4.92037374C31.4111561 4.92037374 31.3762371 4.98152362 31.3413181 4.98152362L31.236561 4.98152362C31.1318039 4.85922386 31.0619658 4.76749903 30.9572088 4.64519926 30.9572088 4.61462432 30.9572088 4.58404938 30.9921278 4.55347444 30.9921278 4.5228995 31.0619658 4.5228995 31.0968849 4.55347444 31.201642 4.5228995 31.4111561 4.79807397 31.4111561 4.92037374L31.4111561 4.92037374zM29.2390641 8.14748932C29.2692069 8.22265272 29.3596356 8.22265272 29.4199214 8.29781611 29.4500643 8.29781611 29.4500643 8.44814291 29.4500643 8.44814291 29.4500643 8.52330631 29.4199214 8.52330631 29.3897785 8.52330631 29.2993498 8.59846971 29.2089212 8.59846971 29.1184925 8.59846971L29.0280638 8.59846971C28.9979209 8.52330631 28.9376352 8.44814291 28.9376352 8.37297951 28.9376352 8.29781611 28.9979209 8.14748932 29.0280638 8.14748932L29.2390641 8.14748932 29.2390641 8.14748932zM30.5746909 1.72341349C30.5746909 1.84400427 30.4678798 1.92439813 30.3966724 1.84400427 30.2898612 1.76361042 30.2186538 1.68321656 30.1474464 1.6028227 30.1118426 1.56262577 30.1118426 1.48223192 30.1474464 1.48223192 30.1830501 1.44203499 30.2542575 1.40183806 30.2898612 1.44203499 30.3966724 1.48223192 30.4678798 1.6028227 30.5746909 1.72341349 30.5746909 1.68321656 30.5746909 1.72341349 30.5746909 1.72341349L30.5746909 1.72341349zM21.9073808 2.47988537C21.8027524 2.47988537 21.5586194 2.2602375 21.5237433 2.17237836 21.4888672 2.08451921 21.5586194 1.99666007 21.6283717 2.04058964 21.7330001 2.08451921 21.8376286 2.21630793 21.942257 2.30416708 21.9771331 2.30416708 21.9771331 2.39202622 21.942257 2.43595579 21.9771331 2.47988537 21.942257 2.47988537 21.9073808 2.47988537L21.9073808 2.47988537zM23.4655484 2.95384245L23.4655484 3.03209611C23.412752 3.1494766 23.3071593 3.22773027 23.1487701 3.18860344 22.9903809 3.1494766 22.9903809 3.07122294 23.0431773 2.95384245 23.0431773 2.91471562 23.0431773 2.91471562 23.0959737 2.87558879 23.1487701 2.79733512 23.2015665 2.71908146 23.3071593 2.75820829 23.3599556 2.79733512 23.412752 2.87558879 23.4655484 2.95384245L23.4655484 2.95384245 23.4655484 2.95384245zM25.8136907 8.92796376C25.8136907 8.92796376 25.7330615 8.92796376 25.6927469 8.86353799 25.6524324 8.79911222 25.6121178 8.73468645 25.5314886 8.67026068 25.5718032 8.60583491 25.6121178 8.54140914 25.6927469 8.47698337L25.8136907 8.47698337C25.8943198 8.47698337 26.0152636 8.54140914 25.974949 8.73468645 26.0152636 8.92796376 25.9346344 8.92796376 25.8136907 8.92796376L25.8136907 8.92796376z"/>
        </g>
        <g transform="translate(.064 4.98)">
          <path fill="#7C2517" d="M38.221184,0.0601695736 C38.5226129,0.150031588 38.8541847,0.239893603 39.1556136,0.359709622 C39.3063281,0.419617632 39.4871854,0.479525641 39.607757,0.569387656 C39.6680427,0.629295666 39.7283285,0.809019695 39.6981856,0.898881709 C39.6680427,0.988743724 39.5173283,1.01869773 39.4268996,1.04865173 C39.0651849,1.13851375 38.7034703,1.16846775 38.3718985,1.28828377 C37.9800409,1.40809979 37.8896123,1.61777783 38.0403267,1.97722588 C38.1910412,2.39658195 38.4020414,2.78598401 38.5527558,3.20534008 C38.7336132,3.68460416 38.8843276,4.19382224 39.0350421,4.67308632 C39.0350421,4.70304032 39.0651849,4.76294833 39.0350421,4.82285634 C38.7938989,5.66156848 39.0953278,6.4104186 39.3666138,7.15926872 C39.4570425,7.42885477 39.4871854,7.69844081 39.2460423,7.90811884 C39.0953278,8.08784287 39.0953278,8.2675669 39.2761852,8.41733692 C39.4570425,8.59706095 39.607757,8.77678498 39.7886143,8.92655501 C40.0297574,9.10627904 40.150329,9.04637103 40.2106148,8.74683098 L40.2106148,8.71687697 C40.2106148,7.96802685 40.2407576,7.24913074 40.2106148,6.50028061 C40.2106148,6.17078656 40.0297574,5.84129251 39.9694716,5.48184445 C39.879043,4.97262637 40.150329,4.73299433 40.6326152,4.88276435 C40.8134725,4.94267236 40.9039012,5.03253438 40.8134725,5.24221241 C40.6326152,5.75143049 40.7230439,6.26064858 40.8737583,6.73991265 C40.964187,7.06940671 40.9943299,7.42885477 40.9340441,7.75834882 C40.8436154,8.56710695 41.0244728,9.31595707 41.2957588,10.0348532 C41.3560446,10.2445312 41.5971877,10.3943012 41.778045,10.5440713 C42.1096168,10.7837033 42.4713315,10.9933813 42.8029033,11.2330134 C42.863189,11.2929214 42.8933319,11.4127374 42.9234748,11.5025994 C42.8330462,11.5025994 42.7124746,11.5325534 42.6220459,11.4726454 C42.3809028,11.3228754 42.1699026,11.1431514 41.9287595,11.0233353 C41.8684737,10.9933813 41.7479021,10.9933813 41.6574735,10.9933813 C41.6574735,11.0832434 41.6574735,11.1431514 41.6876163,11.2330134 C41.7479021,11.5325534 41.8684737,11.8320935 41.8986166,12.1316335 C41.9589024,12.9403917 42.1397597,13.6892418 42.5316173,14.4081379 C42.8933319,15.09708 43.4961897,15.4565281 44.2799049,15.3966201 C44.3401906,15.3966201 44.4306193,15.3966201 44.4909051,15.336712 C44.792334,15.007218 45.2143344,15.037172 45.606192,14.94731 C45.9679067,14.857448 46.2994785,14.6777239 46.6009074,14.4680459 C47.1736223,14.0187358 47.7463372,13.5095177 48.2889092,13.0302537 C48.5300523,13.2998397 48.5300523,15.7560681 48.349195,15.9357921 C48.0477661,15.9058381 47.8066229,15.8459301 47.5654798,15.8758841 C46.8721934,15.9357921 46.2693356,16.1754242 45.7569064,16.6247343 C45.3650489,16.9542283 44.9430484,17.1039983 44.4306193,17.1639063 C44.0086188,17.2238143 43.6167613,17.3436304 43.1947608,17.4035384 C42.863189,17.4634464 42.5617601,17.4934004 42.2301884,17.4934004 C42.049331,17.4934004 41.8081879,17.4035384 41.6876163,17.2837224 C41.0847586,16.5648262 40.3010434,16.3851022 39.4871854,16.5348722 C38.6130416,16.6546883 37.7690407,16.9242743 36.8948969,17.1339523 C36.4728964,17.2537684 36.1413247,17.1639063 35.8097529,16.9242743 C35.2068951,16.4749642 34.8150375,16.4749642 34.1518939,16.8643663 C33.8806079,17.0440903 33.6093219,17.2537684 33.307893,17.4334924 C32.8858926,17.7030784 32.4638921,17.7929404 32.0117488,17.5832624 C31.9816059,17.5533084 31.9213201,17.5233544 31.8911772,17.5233544 C31.5897483,17.5533084 31.2581765,17.4934004 31.0471763,17.6132164 C30.7457474,17.7929404 31.0170334,18.0924805 31.1074621,18.3620665 C31.137605,18.3920205 31.1074621,18.4519285 31.137605,18.5417906 C30.7758903,18.6016986 30.5046043,18.4818826 30.2333183,18.2722045 C29.9318894,18.0026185 29.6003176,17.9127565 29.20846,17.9127565 C28.2438876,17.8828025 27.309458,17.8828025 26.3448855,17.7929404 C25.8023135,17.7629864 25.3200273,17.8528485 24.8678839,18.2122965 C24.5061693,18.5118366 24.0841688,18.7514686 23.6621684,18.9311926 C23.4210252,19.0510086 23.1195963,19.0510086 22.8483103,19.0210546 C22.396167,18.9311926 22.0043094,18.9911006 21.6124519,19.2606867 C21.1904514,19.5602267 20.8588796,19.5602267 20.5273078,19.2307327 C20.0148787,18.6915606 19.4120209,18.8113766 18.7790202,18.9311926 C18.296734,19.0210546 17.8144478,19.1109167 17.3321615,19.1109167 C16.397732,19.1109167 15.4934453,19.2606867 14.8303017,20.0095368 C14.7700159,20.0694448 14.6795872,20.1293528 14.5891586,20.1892608 C13.4135859,20.8182949 12.2380132,21.417375 11.0624405,22.0464091 C10.8212974,22.1662251 10.5198685,22.2560872 10.2485825,22.3159952 C9.40458156,22.5855812 8.56058065,22.8252133 7.74672263,23.1247533 C7.35486507,23.2745233 7.23429351,23.5141554 7.41515085,23.8736034 C7.56586529,24.1731435 7.47543663,24.2929595 7.17400773,24.3828215 C7.14386484,24.3229135 7.08357906,24.2330515 7.02329328,24.1132355 C6.57114994,24.3528675 6.14914948,24.2030975 5.69700614,23.9934194 C4.97357679,23.6639254 4.28029033,23.8136954 3.61714675,24.1731435 C3.28557497,24.3828215 2.92386029,24.4726835 2.53200273,24.4427295 C2.26071672,24.4127755 1.95928783,24.5026375 1.68800182,24.5625455 C1.32628714,24.6524075 0.934429578,24.7422696 0.572714903,24.8620856 C0.512429124,24.8920396 0.452143344,24.9519476 0.391857565,24.9819016 L0.0904286689,24.9819016 L0.0904286689,24.2630055 C0.753572241,24.0233734 1.41671581,23.7837414 2.04971649,23.4842014 C2.50185984,23.2745233 2.8937174,23.0348913 3.31571786,22.7653052 C3.52671809,22.6155352 3.58700386,22.4058572 3.46643231,22.1662251 C3.22528919,21.6869611 3.31571786,21.207697 3.43628942,20.6984789 C3.52671809,20.2791228 3.52671809,19.8597668 3.52671809,19.4104567 C3.52671809,18.0625265 3.22528919,16.7745043 3.01428896,15.4565281 C2.95400318,15.186942 3.04443185,14.887402 3.16500341,14.6178159 C3.43628942,14.0486898 3.85828987,13.9887818 4.370719,14.3182759 C4.70229078,14.5279539 5.03386257,14.7376319 5.36543435,14.917356 C5.39557724,14.94731 5.45586302,14.917356 5.54629169,14.917356 C5.54629169,14.767586 5.5161488,14.6477699 5.5161488,14.5279539 C5.48600591,14.0187358 5.45586302,13.5095177 5.45586302,13.0002997 C5.45586302,12.8804836 5.57643458,12.7906216 5.63672036,12.7007596 C5.66686325,12.6708056 5.8175777,12.7307136 5.8175777,12.7606676 C5.84772059,12.8804836 5.84772059,13.0002997 5.8175777,13.0901617 C5.69700614,13.3897017 5.72714903,13.6592878 5.87786348,13.9288738 C5.96829215,14.1085978 6.0888637,14.2883219 6.17929237,14.4380919 C6.78215016,15.276804 7.14386484,15.306758 8.10843731,14.887402 C8.25915176,14.827494 8.44000909,14.5579079 8.44000909,14.3482299 C8.47015198,13.7191958 8.44000909,13.0602077 8.47015198,12.4012196 C8.50029487,12.0118175 8.65100932,11.6523694 8.74143799,11.2629674 C8.74143799,11.2330134 8.83186666,11.1731054 8.80172377,11.1431514 C8.65100932,10.6638873 9.10315267,10.6339333 9.31415289,10.4841633 C9.52515312,10.3044392 9.97729646,10.6938413 9.8868678,10.9634273 C9.5854389,11.6523694 9.73615335,12.2514495 10.1280109,12.8505296 C10.1280109,12.8804836 10.1280109,12.9104377 10.0375822,12.9703457 C9.79643913,12.6108976 9.55529601,12.2514495 9.31415289,11.8620475 C9.07300978,12.0118175 9.012724,12.2214955 9.07300978,12.4611276 C9.13329556,12.6408516 9.22372422,12.8205756 9.28401,13.0002997 C9.34429578,13.2099777 9.43472445,13.4196557 9.40458156,13.6293338 C9.31415289,14.1385518 9.25386711,14.6477699 9.07300978,15.127034 C8.92229533,15.5463901 8.62086643,15.9058381 8.31943754,16.2353322 C7.98786575,16.5947802 7.89743708,16.8044583 8.25915176,17.1339523 C8.77158088,17.6132164 9.31415289,18.0325725 9.8868678,18.4519285 C10.1882967,18.6616066 10.5198685,18.8413306 10.7007258,19.2007787 C10.7308687,19.2606867 10.8514403,19.2906407 10.9418689,19.3505487 C10.9720118,19.2307327 11.0624405,19.0809626 11.0322976,19.0210546 C10.5198685,18.2122965 10.4595827,17.2537684 10.0677251,16.4450102 C9.73615335,15.7261141 9.70601046,15.037172 9.73615335,14.3182759 L9.73615335,14.1685059 C9.79643913,14.0786438 9.85672491,13.9588278 9.91701069,13.9288738 C9.97729646,13.9288738 10.1280109,14.0187358 10.1581538,14.0786438 C10.3088683,14.4979999 10.5198685,14.917356 10.5801543,15.336712 C10.7308687,16.4749642 11.3940123,17.1938603 12.3887276,17.6731244 C12.840871,17.8828025 12.840871,17.8828025 12.6901565,18.3321125 C12.5997279,18.6016986 12.5092992,18.9012386 12.4490134,19.2007787 C12.3887276,19.4703647 12.6600136,20.0394908 12.9011568,20.1593068 C12.9614425,20.1892608 13.0820141,20.1593068 13.1724428,20.1293528 C13.8054434,19.8298128 14.4083012,19.5302727 15.011159,19.2606867 C15.282445,19.1408707 15.4331595,18.9911006 15.5235882,18.6915606 C15.7647313,17.9726645 16.0661602,17.2537684 16.3073033,16.5348722 C16.4580177,16.1155162 16.5183035,15.6662061 16.6087322,15.216896 C16.669018,14.767586 16.7293037,14.3482299 16.7293037,13.8989198 C16.7293037,13.6592878 16.6388751,13.4196557 16.5183035,13.2099777 C16.4881606,13.1500697 16.2470175,13.0901617 16.1565888,13.1201157 C15.5838739,13.4196557 15.011159,13.7191958 14.4987299,14.0786438 C13.9561579,14.4680459 13.4135859,14.6777239 12.7504423,14.5878619 C12.4791563,14.5579079 12.2078703,14.5579079 11.9667272,14.4979999 C11.7255841,14.4680459 11.5145838,14.3781839 11.3035836,14.2883219 C11.3035836,14.2583679 11.3337265,14.1984599 11.3337265,14.1685059 C11.4542981,14.1984599 11.5748696,14.2284139 11.7255841,14.2583679 C12.7805852,14.4979999 13.7451577,14.4081379 14.6494444,13.7191958 C15.1317306,13.3597477 15.6743026,13.0602077 16.2168746,12.7307136 C16.4580177,12.5809436 16.4881606,12.4611276 16.3675891,12.1915415 C16.2168746,11.8320935 16.1264459,11.4726454 16.0661602,11.0832434 C16.0058744,10.6638873 16.2470175,10.5141173 16.6388751,10.6938413 C17.0608755,10.8735653 17.5130189,10.9933813 17.7843049,11.3827834 C17.8144478,11.4426914 17.9350193,11.4127374 18.025448,11.4426914 C18.025448,11.3528294 18.0555909,11.2929214 18.025448,11.2030594 C17.9048764,10.8735653 17.754162,10.5740253 17.6335904,10.2445312 C17.4225902,9.76526714 17.3924473,9.31595707 17.6335904,8.80673899 C17.6637333,8.71687697 17.6034475,8.56710695 17.6034475,8.44729093 C17.6034475,8.29752091 17.5733046,8.11779688 17.6637333,7.99798086 C17.7240191,7.90811884 17.9350193,7.87816484 18.0555909,7.81825683 C18.1158767,7.96802685 18.2364482,8.14775088 18.2063053,8.2675669 C18.0555909,8.59706095 18.2063053,8.866647 18.296734,9.19614105 C18.4775913,9.70535913 18.5378771,10.2445312 18.6885916,10.7537493 C18.7488773,10.9035193 18.8995918,11.1131974 19.0503062,11.1431514 C19.1708778,11.1731054 19.381878,10.9933813 19.4723067,10.8436113 C19.6230211,10.6039793 19.7435927,10.3343932 19.8340214,10.0648072 C19.9847358,9.67540513 20.8287367,9.07632503 21.2205943,9.10627904 C21.5521661,9.10627904 21.8234521,9.40581908 21.8234521,9.76526714 C21.8234521,9.94499117 21.7933092,10.0947612 21.7933092,10.2744852 C21.7933092,10.7537493 22.0645952,10.9933813 22.5468814,10.8735653 C23.0894535,10.7237953 23.6018826,10.5141173 24.0841688,10.2744852 C24.6267408,9.97494518 24.7473124,9.40581908 24.8075982,8.80673899 C24.837741,8.32747491 24.8980268,7.84821083 24.9583126,7.36894676 C24.9884555,7.0394527 25.1994557,6.91963668 25.5008846,6.94959069 C25.7721706,6.94959069 26.0434566,6.91963668 26.3448855,6.94959069 C26.5257429,6.94959069 26.7066002,7.0094987 26.8271718,7.09936071 C27.038172,7.24913074 27.0984578,7.45880877 26.8271718,7.6385328 C26.5558858,7.87816484 26.5558858,7.93807285 26.8874575,8.08784287 C27.0683149,8.17770489 27.2491722,8.20765889 27.4300296,8.2675669 C27.9424587,8.38738292 28.4548878,8.50719894 28.9974598,8.59706095 C29.6304605,8.71687697 29.9017465,8.59706095 30.1730325,7.99798086 C30.4443185,7.39890076 30.6854616,6.79982066 30.9567476,6.20074057 C30.9868905,6.14083256 31.0170334,6.11087855 31.0471763,6.05097054 C31.0773192,6.05097054 31.1074621,6.08092455 31.1677479,6.08092455 C31.1074621,6.32055659 31.1074621,6.56018862 30.9868905,6.79982066 C30.7758903,7.30903875 30.5046043,7.81825683 30.2634612,8.32747491 C30.1127467,8.68692297 29.8113178,8.83669299 29.4496032,8.896601 C28.8166025,8.95650901 28.2137447,8.896601 27.6410298,8.65696896 C27.2793151,8.53715294 26.9477433,8.38738292 26.5860286,8.2675669 C26.0735995,8.08784287 25.953028,8.20765889 25.8927422,8.71687697 C25.8625993,9.28600307 25.8324564,9.85512916 25.6515991,10.3643472 C25.4405988,11.0532894 24.9583126,11.5325534 24.3554548,11.9219555 C24.2047404,12.0118175 24.0540259,12.1615875 23.9937401,12.3113576 C23.8128828,12.7007596 23.6018826,12.8205756 23.1798821,12.7007596 C22.7277388,12.5809436 22.6975959,12.6408516 22.7880246,13.0901617 C22.9085961,13.6592878 23.3305966,13.9588278 23.752597,14.2583679 C24.1143117,14.5279539 24.5061693,14.7076779 24.8980268,14.94731 C25.3200273,15.216896 25.7721706,15.5164361 26.1640282,15.8159761 C26.3448855,15.9657461 26.4654571,16.2053782 26.5257429,16.4150562 C26.7367431,16.9841823 26.9176004,17.1639063 27.5204582,17.1339523 C28.5151736,17.1039983 29.479746,17.1938603 30.4141756,17.5233544 C30.4744614,17.5533084 30.5648901,17.5533084 30.7156045,17.5832624 C30.323747,16.9841823 30.6553187,16.4450102 30.7457474,15.9357921 C30.866319,15.24685 30.9567476,14.5279539 30.8060332,13.8390118 C30.7758903,13.6892418 30.8361761,13.4795637 30.8964619,13.3297937 C31.2883194,12.5509896 31.4993197,11.7721855 31.0471763,10.9334733 C30.9868905,10.8436113 31.0471763,10.6638873 31.0773192,10.5440713 C31.1978908,10.0048992 31.3486052,9.46572709 31.4390339,8.896601 C31.4691768,8.77678498 31.3486052,8.62701496 31.2581765,8.53715294 C30.866319,8.2675669 30.8361761,7.90811884 30.9266048,7.48876277 C31.0170334,7.09936071 31.137605,6.70995865 31.2280336,6.29060258 C31.2581765,6.20074057 31.2581765,6.02101654 31.1978908,5.99106253 C30.9266048,5.7813845 31.0773192,5.60166047 31.1978908,5.42193644 C31.408891,5.09244239 31.3787481,4.94267236 31.0471763,4.76294833 C30.4141756,4.37354627 30.4141756,4.01409821 30.9567476,3.53483414 C31.0773192,3.41501812 31.1978908,3.26524809 31.2280336,3.08552406 C31.3787481,2.54635198 31.7706057,2.27676593 32.2528919,2.12699591 C33.1270357,1.85740986 33.9408937,2.0970419 34.5136086,2.81593802 C34.6643231,2.99566205 34.8150375,3.14543207 34.9356091,3.2952021 C35.1164664,3.53483414 35.0260377,3.74451217 34.7246088,3.77446617 C34.5738944,3.80442018 34.4533228,3.80442018 34.2121797,3.80442018 C34.3327513,3.9541902 34.3930371,4.07400622 34.4834657,4.13391423 C34.6643231,4.28368426 34.8451804,4.43345428 35.0260377,4.5532703 C35.2671809,4.70304032 35.3576095,4.91271836 35.4480382,5.1823044 C35.5987526,5.54175246 35.8097529,5.90120052 36.0810389,6.20074057 C36.3523249,6.47032661 36.7140396,6.65005064 37.0456113,6.82977467 C37.3470402,7.0094987 37.5278976,6.88968268 37.6183262,6.53023462 C37.7087549,6.05097054 37.7991836,5.54175246 37.8594694,5.06248838 C37.8896123,4.94267236 37.7991836,4.79290234 37.7690407,4.64313231 C37.4676118,3.47492613 37.13604,2.27676593 36.8346111,1.10855974 C36.7441824,0.77906569 36.9250398,0.539433651 37.1963258,0.329755617 C37.2867545,0.269847608 37.3771831,0.179985593 37.4676118,0.120077583 C37.8293265,0.0601695736 38.0403267,0.0601695736 38.221184,0.0601695736 L38.221184,0.0601695736 Z M10.6705829,20.2192148 C10.64044,20.0993988 10.5801543,19.8897208 10.4595827,19.7399508 C9.91701069,19.1109167 9.43472445,18.4219745 8.65100932,18.0625265 C8.53043776,18.0026185 8.44000909,17.9127565 8.34958043,17.7929404 C7.89743708,17.0440903 7.14386484,16.8044583 6.36014971,16.6546883 C6.0888637,16.5947802 5.87786348,16.7145963 5.8175777,16.9841823 C5.72714903,17.5233544 5.39557724,17.8528485 4.9434339,18.1224345 C4.76257656,18.2422505 4.58171922,18.4219745 4.52143344,18.6316526 C4.28029033,19.4404107 4.0692901,20.2791228 3.85828987,21.087881 C3.7678612,21.507237 4.03914721,22.0164551 4.46114766,22.1063171 C5.15443413,22.2560872 5.69700614,22.6155352 6.20943526,23.0947993 C6.51086416,23.3943393 6.72186439,23.3643853 6.93286461,23.0049373 C7.14386484,22.7053972 7.44529374,22.5556272 7.74672263,22.4058572 C8.56058065,22.0164551 9.34429578,21.6270531 10.1280109,21.207697 C10.4897256,20.998019 10.64044,20.6685249 10.6705829,20.2192148 L10.6705829,20.2192148 Z M23.3004537,18.6316526 C23.4210252,18.6016986 23.5717397,18.5717446 23.6320255,18.4818826 C23.6923112,18.3920205 23.6320255,18.2122965 23.5717397,18.1224345 C23.1798821,17.5832624 22.7880246,17.0440903 22.3358812,16.5348722 C21.8234521,15.9357921 21.311023,15.306758 21.039737,14.5579079 C20.9191654,14.2583679 20.7081652,14.1685059 20.4067363,14.2284139 C19.92445,14.3482299 19.4421638,14.4380919 18.9598776,14.5579079 C18.4474484,14.7076779 17.9651622,15.007218 17.7240191,15.5164361 C17.21159,16.5049182 16.7293037,17.5533084 16.2470175,18.5717446 C16.2168746,18.6316526 16.2168746,18.7514686 16.2470175,18.8113766 C16.2771604,18.8413306 16.4278748,18.8712846 16.4580177,18.8413306 C16.8498753,18.6016986 17.21159,18.6616066 17.6335904,18.7514686 C17.8747335,18.8113766 18.1761624,18.7514686 18.4474484,18.6915606 C18.7488773,18.6316526 19.0503062,18.5118366 19.3517351,18.3920205 C19.8641643,18.2122965 19.9847358,18.2422505 20.3464505,18.6316526 C20.7684509,19.0809626 21.1000227,19.1109167 21.5220232,18.6316526 C21.7933092,18.3321125 22.0645952,18.2722045 22.4263099,18.3920205 C22.7578817,18.4818826 22.9990248,18.5717446 23.3004537,18.6316526 L23.3004537,18.6316526 Z M39.2158994,15.336712 C39.9091859,15.336712 39.9091859,15.24685 39.879043,14.7376319 C39.879043,14.5579079 39.9091859,14.3781839 39.9393287,14.1984599 C39.9694716,13.8390118 39.9996145,13.5095177 39.9996145,13.1500697 C39.9996145,13.0302537 39.879043,12.8205756 39.7886143,12.7906216 C39.3967567,12.5809436 39.3967567,12.3113576 39.4871854,11.9519095 C39.6378999,11.3528294 39.7584714,10.7537493 39.879043,10.1546692 C39.9694716,9.67540513 39.7584714,9.28600307 39.4570425,8.95650901 C39.3063281,8.80673899 39.1857565,8.77678498 39.0048992,8.92655501 C38.5828987,9.31595707 38.0403267,9.31595707 37.5580405,8.95650901 C37.4676118,8.896601 37.407326,8.80673899 37.3168974,8.80673899 C36.9551827,8.83669299 36.7441824,8.59706095 36.5331822,8.38738292 C36.4126107,8.29752091 36.2618962,8.2376129 36.1111818,8.17770489 C36.050896,8.32747491 35.9604673,8.47724493 35.9604673,8.62701496 C35.8700386,9.43577309 35.8398958,10.2445312 35.7193242,11.0532894 C35.6590384,11.4726454 35.7494671,11.7721855 36.050896,12.0717255 C36.3523249,12.3413116 36.6236109,12.6708056 36.7743253,13.0302537 C36.9551827,13.3897017 37.1661829,13.6592878 37.4977547,13.8989198 C37.7991836,14.1385518 38.1006125,14.4380919 38.3417556,14.767586 C38.5527558,15.186942 38.8240418,15.366666 39.2158994,15.336712 L39.2158994,15.336712 Z M32.9763212,8.56710695 C32.6146066,8.98646302 32.5241779,9.40581908 32.5241779,9.82517515 C32.494035,10.9933813 32.2528919,12.1016795 31.7404628,13.1500697 C31.680177,13.2698857 31.6500341,13.3897017 31.6500341,13.5394718 C31.6198912,14.2583679 31.5596054,14.977264 31.5596054,15.6961601 C31.5596054,15.9357921 31.6500341,16.2053782 31.7706057,16.4450102 C31.8308914,16.5648262 32.0117488,16.7445503 32.1323203,16.7445503 C32.6146066,16.7745043 33.0968928,16.7445503 33.4586075,16.4150562 C34.0614653,15.8459301 34.5136086,15.156988 34.6040373,14.3182759 C34.6643231,13.7791038 34.694466,13.2399317 34.7246088,12.7007596 C34.7547517,12.2514495 34.6040373,11.8920015 34.1820368,11.7122775 C33.9710366,11.6224154 33.9408937,11.5025994 34.0011795,11.2929214 C34.0614653,11.1131974 34.1217511,10.8735653 34.0614653,10.7537493 C33.7298935,10.0048992 33.3380359,9.31595707 32.9763212,8.56710695 L32.9763212,8.56710695 Z M22.8483103,14.1685059 C22.8181674,14.1984599 22.8181674,14.2284139 22.7880246,14.2583679 C22.8784532,14.6477699 23.0291677,15.037172 23.0894535,15.4565281 C23.210025,16.4150562 23.6018826,17.2537684 24.1444546,18.0625265 C24.3253119,18.3321125 24.4760264,18.3321125 24.6870266,18.0924805 C24.9583126,17.7929404 25.2597415,17.4934004 25.5611704,17.2537684 C25.681742,17.1639063 25.8625993,17.1938603 26.0434566,17.1639063 C26.1338853,17.1639063 26.2544569,17.1938603 26.2845997,17.1339523 C26.3147426,17.0740443 26.3147426,16.9542283 26.2845997,16.8643663 C26.224314,16.7445503 26.1640282,16.5947802 26.0434566,16.5049182 C25.5611704,16.0556082 25.1090271,15.6062981 24.5965979,15.216896 C24.023883,14.827494 23.4210252,14.5279539 22.8483103,14.1685059 L22.8483103,14.1685059 Z M35.1466093,13.3597477 L35.1767522,13.3597477 C35.1466093,13.6592878 35.1164664,13.9887818 35.0561806,14.2883219 C34.965752,14.7376319 34.8451804,15.186942 34.7246088,15.6362521 C34.6643231,15.8758841 34.7246088,16.1155162 34.9356091,16.1754242 C35.0863235,16.2353322 35.2973237,16.1754242 35.4480382,16.0556082 C35.7494671,15.8159761 36.050896,15.7560681 36.4126107,15.8758841 C36.6236109,15.9357921 36.8948969,15.9657461 37.1058971,15.9058381 C37.3168974,15.8758841 37.6484691,15.7560681 37.678612,15.6062981 C37.7388978,15.4265741 37.5580405,15.156988 37.4374689,14.94731 C37.3771831,14.857448 37.2264687,14.79754 37.13604,14.7376319 C37.0456113,14.6777239 36.9250398,14.6178159 36.864754,14.5279539 C36.5633251,13.9887818 36.2920391,13.4496097 35.9604673,12.9403917 C35.8097529,12.7007596 35.5987526,12.5210356 35.3576095,12.3413116 C35.1767522,12.1915415 35.0260377,12.3113576 35.0260377,12.5509896 C35.0863235,12.8205756 35.1164664,13.0901617 35.1466093,13.3597477 L35.1466093,13.3597477 Z M35.1164664,10.6938413 C35.0863235,10.5740253 35.0863235,10.4841633 35.0863235,10.4242552 C35.0863235,9.58554311 35.0561806,8.74683098 35.0561806,7.90811884 C35.0561806,7.75834882 34.965752,7.57862479 34.9356091,7.42885477 C34.7547517,7.48876277 34.5738944,7.48876277 34.4231799,7.57862479 C34.1820368,7.72839481 34.0011795,7.90811884 33.7600364,8.05788887 C33.579179,8.17770489 33.6093219,8.32747491 33.6997506,8.50719894 C33.9107508,8.95650901 34.1217511,9.43577309 34.3327513,9.91503717 C34.4834657,10.2145772 34.6341802,10.4841633 34.8150375,10.7537493 C34.8451804,10.8136573 34.965752,10.8735653 35.0561806,10.8735653 C35.0561806,10.8735653 35.0863235,10.7237953 35.1164664,10.6938413 L35.1164664,10.6938413 Z M42.2603312,15.4265741 C42.2904741,15.3966201 42.2904741,15.336712 42.320617,15.306758 C41.6574735,15.007218 41.3861875,14.4380919 41.1450443,13.8390118 C41.1149014,13.7791038 41.0244728,13.7191958 40.9943299,13.7191958 C40.9039012,13.7491498 40.8134725,13.8390118 40.8134725,13.8989198 C40.7833297,14.2284139 40.7531868,14.5279539 40.7833297,14.857448 C40.8134725,15.366666 40.9039012,15.3966201 41.3861875,15.4265741 C41.5369019,15.4265741 41.6574735,15.4864821 41.8081879,15.4864821 C41.9589024,15.5164361 42.1096168,15.4565281 42.2603312,15.4265741 L42.2603312,15.4265741 Z M11.6351554,19.4404107 C11.5748696,19.5602267 11.5145838,19.6201347 11.4844409,19.7099968 C11.3638694,20.0694448 11.8461556,20.7583869 12.2380132,20.7883409 C12.3284419,20.7883409 12.4490134,20.7284329 12.5092992,20.6685249 C12.5394421,20.6385709 12.5092992,20.4888009 12.4791563,20.4288929 C12.2681561,20.1293528 12.0571558,19.8597668 11.8160127,19.5901807 C11.7858698,19.5003187 11.7255841,19.5003187 11.6351554,19.4404107 L11.6351554,19.4404107 Z M10.7911545,21.057927 C11.0624405,21.117835 11.3035836,21.117835 11.4241552,20.8482489 C11.4542981,20.7883409 11.2734407,20.5487089 11.183012,20.5487089 C10.8815832,20.5187549 10.8514403,20.7883409 10.7911545,21.057927 L10.7911545,21.057927 Z"/>
          <path fill="#7C2517" d="M10.3992969,13.0302537 C10.64044,13.3297937 10.8815832,13.6293338 11.1227263,13.9288738 C11.0925834,13.9588278 11.0624405,13.9588278 11.0322976,13.9887818 C10.6705829,13.7791038 10.4897256,13.4496097 10.3088683,13.0901617 C10.369154,13.0901617 10.3992969,13.0602077 10.3992969,13.0302537 L10.3992969,13.0302537 Z"/>
        </g>
      </g>
    </g>
  </g>
</svg>
